<?xml version="1.0" encoding="UTF-8" standalone="yes"?>
<svg width="5130" height="90">
	<g transform="translate(10, 20)">
		<text x="100" y="0" dominant-baseline="mathematical" font-size="10px" font-family="monospace" text-anchor="end">
			tb.a
		</text>
		<text x="2610" y="0" dominant-baseline="mathematical" font-size="10px" font-family="monospace" text-anchor="middle">
			
		</text>
		<path stroke="#000000" stroke-width="1" fill="none" d="M 110,0 l 1.5,10 l 4997,0 l 1.5,-10 l -1.5,-10 l -4997,0 l -1.5,10"/>
	</g>
	<g transform="translate(10, 45)">
		<text x="100" y="0" dominant-baseline="mathematical" font-size="10px" font-family="monospace" text-anchor="end">
			tb.b
		</text>
		<text x="2610" y="0" dominant-baseline="mathematical" font-size="10px" font-family="monospace" text-anchor="middle">
			
		</text>
		<path stroke="#000000" stroke-width="1" fill="none" d="M 110,0 l 1.5,10 l 4997,0 l 1.5,-10 l -1.5,-10 l -4997,0 l -1.5,10"/>
	</g>
	<g transform="translate(10, 70)">
		<text x="100" y="0" dominant-baseline="mathematical" font-size="10px" font-family="monospace" text-anchor="end">
			tb.c
		</text>
		<text x="2610" y="0" dominant-baseline="mathematical" font-size="10px" font-family="monospace" text-anchor="middle">
			
		</text>
		<path stroke="#000000" stroke-width="1" fill="none" d="M 110,0 l 1.5,10 l 4997,0 l 1.5,-10 l -1.5,-10 l -4997,0 l -1.5,10"/>
	</g>
</svg>
