<?xml version="1.0" encoding="UTF-8" standalone="yes"?>
<svg width="1130" height="165">
	<g transform="translate(10, 20)">
		<text x="100" y="0" dominant-baseline="mathematical" font-size="10px" font-family="monospace" text-anchor="end">
			TOP.tb.a
		</text>
		<path stroke="#000000" stroke-width="1" fill="none" d="M 110,0 l 1.5,10 l 997,0 l 1.5,-10"/>
	</g>
	<g transform="translate(10, 45)">
		<text x="100" y="0" dominant-baseline="mathematical" font-size="10px" font-family="monospace" text-anchor="end">
			TOP.tb.b
		</text>
		<path stroke="#000000" stroke-width="1" fill="none" d="M 110,0 l 1.5,10 l 997,0 l 1.5,-10"/>
	</g>
	<g transform="translate(10, 70)">
		<text x="100" y="0" dominant-baseline="mathematical" font-size="10px" font-family="monospace" text-anchor="end">
			TOP.tb.c
		</text>
		<path stroke="#000000" stroke-width="1" fill="none" d="M 110,0 l 1.5,10 l 997,0 l 1.5,-10"/>
	</g>
	<g transform="translate(10, 95)">
		<text x="100" y="0" dominant-baseline="mathematical" font-size="10px" font-family="monospace" text-anchor="end">
			TOP.tb.uut.a
		</text>
		<path stroke="#000000" stroke-width="1" fill="none" d="M 110,0 l 1.5,10 l 997,0 l 1.5,-10"/>
	</g>
	<g transform="translate(10, 120)">
		<text x="100" y="0" dominant-baseline="mathematical" font-size="10px" font-family="monospace" text-anchor="end">
			TOP.tb.uut.b
		</text>
		<path stroke="#000000" stroke-width="1" fill="none" d="M 110,0 l 1.5,10 l 997,0 l 1.5,-10"/>
	</g>
	<g transform="translate(10, 145)">
		<text x="100" y="0" dominant-baseline="mathematical" font-size="10px" font-family="monospace" text-anchor="end">
			TOP.tb.uut.c
		</text>
		<path stroke="#000000" stroke-width="1" fill="none" d="M 110,0 l 1.5,10 l 997,0 l 1.5,-10"/>
	</g>
</svg>
